<svg id="visual" viewBox="0 0 900 600" width="900" height="600" xmlns="http://www.w3.org/2000/svg" xmlns:xlink="http://www.w3.org/1999/xlink" version="1.1"><rect x="0" y="0" width="900" height="600" fill="#0b090a"></rect><defs><linearGradient id="grad1_0" x1="33.3%" y1="0%" x2="100%" y2="100%"><stop offset="20%" stop-color="#0b090a" stop-opacity="1"></stop><stop offset="80%" stop-color="#0b090a" stop-opacity="1"></stop></linearGradient></defs><defs><linearGradient id="grad2_0" x1="0%" y1="0%" x2="66.7%" y2="100%"><stop offset="20%" stop-color="#0b090a" stop-opacity="1"></stop><stop offset="80%" stop-color="#0b090a" stop-opacity="1"></stop></linearGradient></defs><g transform="translate(900, 0)"><path d="M0 486.7C-44.2 437.4 -88.3 388 -154.6 373.2C-220.9 358.5 -309.3 378.4 -344.2 344.2C-379 310 -360.3 221.7 -375.1 155.4C-389.9 89 -438.3 44.5 -486.7 0L0 0Z" fill="#F77F00"></path></g><g transform="translate(0, 600)"><path d="M0 -486.7C71.3 -487.7 142.7 -488.6 186.3 -449.7C229.9 -410.8 245.8 -331.9 282.8 -282.8C319.9 -233.8 378.2 -214.4 415.7 -172.2C453.3 -130 470 -65 486.7 0L0 0Z" fill="#F77F00"></path></g></svg>